<svg width="99" height="28" viewBox="0 0 99 28" fill="none" xmlns="http://www.w3.org/2000/svg">
<path d="M12 22.0002H21M3 22.0002H4.67454C5.16372 22.0002 5.40832 22.0002 5.63849 21.945C5.84256 21.896 6.03765 21.8152 6.2166 21.7055C6.41843 21.5818 6.59138 21.4089 6.93729 21.063L19.5 8.50023C20.3285 7.6718 20.3285 6.32865 19.5 5.50023C18.6716 4.6718 17.3285 4.6718 16.5 5.50023L3.93726 18.063C3.59136 18.4089 3.4184 18.5818 3.29472 18.7837C3.18506 18.9626 3.10425 19.1577 3.05526 19.3618C3 19.5919 3 19.8365 3 20.3257V22.0002Z" stroke="#0093DD" stroke-width="2" stroke-linecap="round" stroke-linejoin="round"/>
<path d="M35.147 19L32.2734 8.81818H34.2571L36.0916 16.3004H36.1861L38.1449 8.81818H39.9496L41.9134 16.3054H42.0028L43.8374 8.81818H45.821L42.9474 19H41.1278L39.0895 11.8558H39.0099L36.9666 19H35.147ZM46.1219 19V11.3636H47.8669V12.6364H47.9465C48.0857 12.1955 48.3243 11.8558 48.6624 11.6172C49.0038 11.3752 49.3932 11.2543 49.8307 11.2543C49.9301 11.2543 50.0412 11.2592 50.1638 11.2692C50.2898 11.2758 50.3942 11.2874 50.477 11.304V12.9595C50.4008 12.933 50.2798 12.9098 50.1141 12.8899C49.9517 12.8667 49.7943 12.8551 49.6418 12.8551C49.3137 12.8551 49.0187 12.9264 48.7568 13.0689C48.4983 13.2081 48.2945 13.402 48.1453 13.6506C47.9962 13.8991 47.9216 14.1858 47.9216 14.5107V19H46.1219ZM51.2527 19V11.3636H53.0524V19H51.2527ZM52.1575 10.2798C51.8725 10.2798 51.6272 10.1854 51.4217 9.99645C51.2162 9.80421 51.1135 9.57386 51.1135 9.3054C51.1135 9.03362 51.2162 8.80327 51.4217 8.61435C51.6272 8.42211 51.8725 8.32599 52.1575 8.32599C52.4459 8.32599 52.6911 8.42211 52.8933 8.61435C53.0988 8.80327 53.2015 9.03362 53.2015 9.3054C53.2015 9.57386 53.0988 9.80421 52.8933 9.99645C52.6911 10.1854 52.4459 10.2798 52.1575 10.2798ZM58.2963 11.3636V12.7557H53.9064V11.3636H58.2963ZM54.9902 9.53409H56.7899V16.7031C56.7899 16.9451 56.8264 17.1307 56.8993 17.2599C56.9755 17.3859 57.0749 17.4721 57.1976 17.5185C57.3202 17.5649 57.4561 17.5881 57.6052 17.5881C57.7179 17.5881 57.8207 17.5798 57.9135 17.5632C58.0096 17.5466 58.0825 17.5317 58.1322 17.5185L58.4355 18.9254C58.3394 18.9586 58.2018 18.995 58.0228 19.0348C57.8472 19.0746 57.6317 19.0978 57.3765 19.1044C56.9258 19.1177 56.5198 19.0497 56.1585 18.9006C55.7972 18.7481 55.5105 18.5128 55.2984 18.1946C55.0896 17.8764 54.9869 17.4787 54.9902 17.0014V9.53409ZM62.6801 19.1491C61.9145 19.1491 61.2532 18.9901 60.6964 18.6719C60.1429 18.3504 59.717 17.8963 59.4187 17.3097C59.1204 16.7197 58.9713 16.0253 58.9713 15.2266C58.9713 14.4411 59.1204 13.7517 59.4187 13.1584C59.7203 12.5618 60.1413 12.0978 60.6815 11.7663C61.2218 11.4316 61.8565 11.2642 62.5856 11.2642C63.0563 11.2642 63.5004 11.3404 63.918 11.4929C64.3389 11.642 64.7102 11.8741 65.0316 12.1889C65.3565 12.5038 65.6117 12.9048 65.7973 13.392C65.9829 13.8759 66.0757 14.4527 66.0757 15.1222V15.674H59.8164V14.4609H64.3505C64.3472 14.1162 64.2727 13.8097 64.1268 13.5412C63.981 13.2694 63.7771 13.0556 63.5153 12.8999C63.2568 12.7441 62.9552 12.6662 62.6105 12.6662C62.2426 12.6662 61.9194 12.7557 61.641 12.9347C61.3626 13.1103 61.1455 13.3423 60.9897 13.6307C60.8373 13.9157 60.7594 14.2289 60.7561 14.5703V15.6293C60.7561 16.0734 60.8373 16.4545 60.9997 16.7727C61.1621 17.0876 61.3891 17.3295 61.6808 17.4986C61.9725 17.6643 62.3138 17.7472 62.7049 17.7472C62.9668 17.7472 63.2038 17.7107 63.4159 17.6378C63.628 17.5616 63.812 17.4505 63.9677 17.3047C64.1235 17.1589 64.2412 16.9782 64.3207 16.7628L66.0011 16.9517C65.895 17.3958 65.6929 17.7836 65.3946 18.1151C65.0996 18.4432 64.7218 18.6984 64.2611 18.8807C63.8004 19.0597 63.2734 19.1491 62.6801 19.1491ZM70.3104 19V8.81818H74.1286C74.9108 8.81818 75.5671 8.96401 76.0974 9.25568C76.631 9.54735 77.0337 9.94839 77.3055 10.4588C77.5806 10.9659 77.7181 11.5426 77.7181 12.1889C77.7181 12.8419 77.5806 13.4219 77.3055 13.929C77.0304 14.4361 76.6244 14.8355 76.0874 15.1271C75.5505 15.4155 74.8893 15.5597 74.1038 15.5597H71.5732V14.0433H73.8552C74.3126 14.0433 74.6871 13.9638 74.9788 13.8047C75.2704 13.6456 75.4859 13.4268 75.6251 13.1484C75.7676 12.87 75.8388 12.5502 75.8388 12.1889C75.8388 11.8277 75.7676 11.5095 75.6251 11.2344C75.4859 10.9593 75.2688 10.7455 74.9738 10.593C74.6821 10.4373 74.3059 10.3594 73.8452 10.3594H72.1549V19H70.3104ZM82.0422 19.1491C81.2965 19.1491 80.6502 18.9851 80.1033 18.657C79.5565 18.3288 79.1322 17.8698 78.8306 17.2798C78.5323 16.6899 78.3832 16.0005 78.3832 15.2116C78.3832 14.4228 78.5323 13.7318 78.8306 13.1385C79.1322 12.5452 79.5565 12.0845 80.1033 11.7564C80.6502 11.4283 81.2965 11.2642 82.0422 11.2642C82.788 11.2642 83.4343 11.4283 83.9812 11.7564C84.528 12.0845 84.9506 12.5452 85.2489 13.1385C85.5505 13.7318 85.7013 14.4228 85.7013 15.2116C85.7013 16.0005 85.5505 16.6899 85.2489 17.2798C84.9506 17.8698 84.528 18.3288 83.9812 18.657C83.4343 18.9851 82.788 19.1491 82.0422 19.1491ZM82.0522 17.7074C82.4565 17.7074 82.7946 17.5964 83.0664 17.3743C83.3382 17.1489 83.5404 16.8473 83.6729 16.4695C83.8088 16.0916 83.8768 15.6707 83.8768 15.2067C83.8768 14.7393 83.8088 14.3168 83.6729 13.9389C83.5404 13.5578 83.3382 13.2545 83.0664 13.0291C82.7946 12.8037 82.4565 12.6911 82.0522 12.6911C81.6379 12.6911 81.2932 12.8037 81.0181 13.0291C80.7463 13.2545 80.5425 13.5578 80.4066 13.9389C80.274 14.3168 80.2077 14.7393 80.2077 15.2067C80.2077 15.6707 80.274 16.0916 80.4066 16.4695C80.5425 16.8473 80.7463 17.1489 81.0181 17.3743C81.2932 17.5964 81.6379 17.7074 82.0522 17.7074ZM92.8444 13.3821L91.2037 13.5611C91.1573 13.3954 91.0761 13.2396 90.9601 13.0938C90.8474 12.9479 90.695 12.8303 90.5027 12.7408C90.3105 12.6513 90.0752 12.6065 89.7968 12.6065C89.4223 12.6065 89.1074 12.6877 88.8522 12.8501C88.6003 13.0125 88.476 13.223 88.4793 13.4815C88.476 13.7036 88.5572 13.8842 88.7229 14.0234C88.892 14.1626 89.1704 14.277 89.5581 14.3665L90.8607 14.6449C91.5832 14.8007 92.1202 15.0476 92.4715 15.3857C92.8261 15.7237 93.0051 16.1662 93.0084 16.7131C93.0051 17.1937 92.8643 17.6179 92.5858 17.9858C92.3107 18.3504 91.9279 18.6354 91.4374 18.8409C90.9469 19.0464 90.3834 19.1491 89.7471 19.1491C88.8124 19.1491 88.06 18.9536 87.49 18.5625C86.9199 18.1681 86.5802 17.6196 86.4708 16.9169L88.2258 16.7479C88.3053 17.0926 88.4743 17.3527 88.7329 17.5284C88.9914 17.7041 89.3278 17.7919 89.7421 17.7919C90.1697 17.7919 90.5127 17.7041 90.7712 17.5284C91.0331 17.3527 91.164 17.1357 91.164 16.8771C91.164 16.6584 91.0795 16.4777 90.9104 16.3352C90.7447 16.1927 90.4862 16.0833 90.1349 16.0071L88.8323 15.7337C88.0998 15.5812 87.5579 15.3243 87.2066 14.9631C86.8553 14.5985 86.6813 14.1378 86.6846 13.581C86.6813 13.1103 86.8089 12.7027 87.0674 12.358C87.3292 12.0099 87.6921 11.7415 88.1562 11.5526C88.6235 11.3603 89.1621 11.2642 89.7719 11.2642C90.6668 11.2642 91.3711 11.4548 91.8849 11.8359C92.4019 12.2171 92.7217 12.7325 92.8444 13.3821ZM97.8857 11.3636V12.7557H93.4957V11.3636H97.8857ZM94.5796 9.53409H96.3793V16.7031C96.3793 16.9451 96.4157 17.1307 96.4886 17.2599C96.5649 17.3859 96.6643 17.4721 96.7869 17.5185C96.9096 17.5649 97.0455 17.5881 97.1946 17.5881C97.3073 17.5881 97.41 17.5798 97.5028 17.5632C97.599 17.5466 97.6719 17.5317 97.7216 17.5185L98.0249 18.9254C97.9287 18.9586 97.7912 18.995 97.6122 19.0348C97.4366 19.0746 97.2211 19.0978 96.9659 19.1044C96.5152 19.1177 96.1091 19.0497 95.7479 18.9006C95.3866 18.7481 95.0999 18.5128 94.8878 18.1946C94.679 17.8764 94.5762 17.4787 94.5796 17.0014V9.53409Z" fill="#0093DD"/>
<path d="M32 21.7841H98.4673V22.7386H32V21.7841Z" fill="#0093DD"/>
</svg>
